# xmcd
#
# Track frame offsets: 
#        150
#        13311
#        32431
#        44843
#        59825
#        71480
#        89424
#        101364
#        116959
#        128300
#        148464
#
# Disc length: 2247 seconds
#
# Revision: 0
# Processed by: cddbd v1.5.2PL0 Copyright (c) Steve Scherf et al.
# Submitted via: ExactAudioCopy v0.99pb3
#
DISCID=a508c50b
DTITLE=Colin James and The Little Big Band - Christmas
DYEAR=2007
DGENRE=Christmas
TTITLE0=Cool Yule
TTITLE1=Christmas Island
TTITLE2=Boogie Woogie Santa Claus
TTITLE3=I'll Be Home For Christmas
TTITLE4=Let It Snow
TTITLE5=Merry Christmas Baby
TTITLE6=Blue Christmas
TTITLE7=Baby It's Cold Outside (with Roxanne Potvin)
TTITLE8=Shake Hands With Santa Claus
TTITLE9=Please Come Home For Christmas
TTITLE10=Go Where I Send Thee
EXTD=
EXTT0=
EXTT1=
EXTT2=
EXTT3=
EXTT4=
EXTT5=
EXTT6=
EXTT7=
EXTT8=
EXTT9=
EXTT10=
PLAYORDER=
